<?xml version="1.0" encoding="UTF-8" standalone="no"?>
<!DOCTYPE svg PUBLIC "-//W3C//DTD SVG 1.1//EN" "http://www.w3.org/Graphics/SVG/1.1/DTD/svg11.dtd">
<!-- Created with Vectornator (http://vectornator.io/) -->
<svg height="300.0pt" stroke-miterlimit="10" style="fill-rule:nonzero;clip-rule:evenodd;stroke-linecap:round;stroke-linejoin:round;" version="1.1" viewBox="0 0 600 300" width="600.0pt" xml:space="preserve" xmlns="http://www.w3.org/2000/svg" xmlns:xlink="http://www.w3.org/1999/xlink">
<defs/>
<clipPath id="ArtboardFrame">
<rect height="300" width="600" x="0" y="0"/>
</clipPath>
<g clip-path="url(#ArtboardFrame)" id="无标题">
<path d="M0 48.352C0.838 45.083 1.304 41.753 0.692 38.269C0.692 36.249 0.452 34.286 0 32.406L0 0L377.835 0C379.197 0.02 380.595 0.026 382.003 0L588.057 0C588.96 0.0482069 589.864 0.0482069 590.767 0L600 0L600 300L225.551 300C223.416 299.423 221.213 299.131 219.001 299.133C216.789 299.131 214.587 299.423 212.452 300L151.68 300C150.227 299.737 148.73 299.6 147.202 299.6C145.673 299.6 144.176 299.737 142.723 300L89.706 300C87.8751 299.799 86.0279 299.799 84.197 300L83.68 300C82.227 299.737 80.73 299.6 79.202 299.6C77.673 299.6 76.176 299.737 74.723 300L23.956 300C22.1251 299.799 20.2779 299.799 18.447 300L4.682 300C4.5504 295.007 2.91896 290.17-5.52358e-15 286.117L0 48.352Z" fill="#ff8000" fill-rule="nonzero" opacity="1" stroke="none"/>
<path d="M296.998 212.192C284.424 218.097 268.005 213.799 263.657 199.809C259.308 185.819 270.105 150.969 288.151 147.332C306.197 143.694 338.056 154.846 350.457 182.312C362.858 209.779 354.538 248.025 324.193 254.907C293.848 261.789 234.089 255.897 212.798 213.532C191.506 171.167 215.691 112.625 259.352 100.082C303.013 87.538 367.067 106.522 393.305 161.674C419.545 216.826 400.029 282.999 342.597 301.833C340.496 302.522 338.355 303.165 336.179 303.76" fill="none" opacity="1" stroke="#ffa800" stroke-linecap="round" stroke-linejoin="miter" stroke-width="15"/>
<path d="M257.417 305.178C219.673 296.787 184.223 274.901 165.962 236.225C133.507 167.488 167.048 78.778 237.784 52.934C308.521 27.089 396.597 57.65 434.872 137.976C462.272 195.478 454.824 258.421 418.436 300.812" fill="none" opacity="1" stroke="#ffa800" stroke-linecap="round" stroke-linejoin="miter" stroke-width="15"/>
<path d="M160.73 300.88C147.679 287.665 136.64 271.825 128.414 253.262C87.438 160.794 128.533 41.85 224.681 2.407C226.862 1.51229 229.059 0.656154 231.27-0.161M366.688-0.222C414.557 17.615 456.128 54.765 479.938 109.055C507.945 172.916 505.559 244.445 474.875 300.801" fill="none" opacity="1" stroke="#ffa800" stroke-linecap="round" stroke-linejoin="miter" stroke-width="15"/>
<path d="M92.322 300.428C86.8657 291.575 82.0417 282.348 77.886 272.816C37.353 180.037 57.936 68.136 126.752-2.299M475.577-3.53C499.715 19.684 519.949 48.557 534.478 82.838C564.514 153.704 566.615 232.701 541.775 301.03M12.229 301.509C6.68075 287.569 2.09041 273.266-1.51 258.7M-3.012 97.495C4.677 63.1 17.484 29.918 35.215-0.44M592.38-0.138C599 14.127 604.492 29.362 608.712 45.568" fill="none" opacity="1" stroke="#ffa800" stroke-linecap="round" stroke-linejoin="miter" stroke-width="15"/>
<path d="M296.962 214.504C283.84 220.667 266.704 216.181 262.165 201.58C257.626 186.979 268.895 150.608 287.73 146.811C306.564 143.015 339.814 154.653 352.757 183.319C365.7 211.985 357.016 251.903 325.345 259.085C293.675 266.268 231.306 260.118 209.085 215.903C186.864 171.687 212.105 110.588 257.673 97.497C303.241 84.406 370.092 104.218 397.476 161.779C422.365 214.093 407.81 275.909 359.953 301.499M247.582 309.548C243.736 308.493 239.931 307.297 236.173 305.963" fill="none" opacity="1" stroke="#ff9900" stroke-linecap="round" stroke-linejoin="miter" stroke-width="15"/>
<path d="M219.984 299.152C194.938 286.852 173.321 267.37 160.204 239.587C126.331 167.847 161.337 75.263 235.163 48.29C308.988 21.317 400.913 53.213 440.859 137.046C468.543 195.148 462.14 258.57 427.244 302.699" fill="none" opacity="1" stroke="#ff9900" stroke-linecap="round" stroke-linejoin="miter" stroke-width="15"/>
<path d="M147.82 299.607C137.197 287.427 128.105 273.367 121.016 257.368C79.572 163.844 118.57 44.37 212.349-0.392M386.21-0.181C429.137 20.334 465.825 56.544 487.892 106.862C516.146 171.284 514.764 243.181 485.722 301.029" fill="none" opacity="1" stroke="#ff9900" stroke-linecap="round" stroke-linejoin="miter" stroke-width="15"/>
<path d="M79.202 299.6C75.1816 292.522 71.5363 285.237 68.281 277.776C27.12 183.561 46.345 70.452 113.57-3.304M492.1-1.803C513.441 20.79 531.442 47.95 544.814 79.5C575.233 151.27 578.199 231.032 554.66 300.856M0.871 39.561C6.34581 25.7921 12.6882 12.3842 19.86-0.582" fill="none" opacity="1" stroke="#ff9900" stroke-linecap="round" stroke-linejoin="miter" stroke-width="15"/>
<g opacity="1">
<path d="M227.686 148.776C227.686 188.714 260.062 221.09 300 221.09C339.938 221.09 372.314 188.714 372.314 148.776C372.314 108.838 339.938 76.4615 300 76.4615C260.062 76.4615 227.686 108.838 227.686 148.776Z" fill="#d7ffe9" fill-rule="nonzero" opacity="1" stroke="none"/>
<path d="M355.627 137.651C355.591 117.021 346.746 97.3881 331.318 83.693C298.906 68.4413 260.213 79.2163 240.35 109.025C220.487 138.834 225.439 178.693 251.994 202.734C274.386 213.493 300.734 212.004 321.772 198.792C342.81 185.58 355.593 162.493 355.627 137.651Z" fill="#ffffff" fill-rule="nonzero" opacity="1" stroke="none"/>
<path d="M300.223 109.003L300.223 148.776L319.302 171.193" fill="#ffffff" fill-rule="nonzero" opacity="1" stroke="none"/>
<path d="M319.302 176.589C317.676 176.589 316.132 175.878 315.075 174.642L295.995 152.392C295.052 151.417 294.498 150.131 294.437 148.776L294.437 109.003C294.437 105.931 296.928 103.44 300 103.44C303.072 103.44 305.563 105.931 305.563 109.003L305.563 146.718L323.363 167.578C324.656 169.208 324.931 171.423 324.076 173.32C323.222 175.217 321.38 176.478 319.302 176.589Z" fill="#79e8b8" fill-rule="nonzero" opacity="1" stroke="none"/>
</g>
</g>
</svg>
