<?xml version="1.0" encoding="UTF-8"?>
<!-- Generated by Pixelmator Pro 3.5.1 -->
<svg width="20" height="20" viewBox="0 0 20 20" xmlns="http://www.w3.org/2000/svg">
    <path id="path1" fill="#3e80f6" stroke="none"
        d="M 17.532227 18.789063 L 2.470703 18.789063 C 1.831641 18.789063 1.313477 18.270897 1.313477 17.631836 L 1.313477 2.368164 C 1.313477 1.729101 1.831641 1.210938 2.470703 1.210938 L 17.532227 1.210938 C 18.171289 1.210938 18.689453 1.729101 18.689453 2.368164 L 18.689453 17.631836 C 18.689648 18.270897 18.171484 18.789063 17.532227 18.789063 Z" />
    <path id="path2" fill="#0c2e97" stroke="none"
        d="M 16.323048 17.019922 L 3.680078 17.019922 C 3.2875 17.019922 2.969141 16.701563 2.969141 16.308985 L 2.969141 3.691015 C 2.969141 3.298437 3.2875 2.980078 3.680078 2.980078 L 16.323048 2.980078 C 16.715626 2.980078 17.033985 3.298437 17.033985 3.691015 L 17.033985 16.308788 C 17.033985 16.701563 16.715626 17.019922 16.323048 17.019922 Z" />
    <path id="path3" fill="#1aadf9" stroke="none"
        d="M 18.688086 12.997656 L 18.688086 17.633789 C 18.688086 18.274805 18.167187 18.785547 17.536327 18.785547 L 2.472266 18.785547 C 1.830664 18.785547 1.310547 18.26543 1.310547 17.623829 L 1.310547 12.997656 L 5.230078 12.997656 C 5.468946 12.997656 5.689063 13.127539 5.804688 13.336524 L 6.106055 13.881445 C 6.224804 14.096289 6.450781 14.229492 6.696289 14.229492 L 13.563086 14.229492 C 13.808479 14.229426 14.034494 14.09615 14.15332 13.881445 L 14.454688 13.336524 C 14.570289 13.127421 14.790367 12.997633 15.029297 12.997656 L 18.688086 12.997656 Z" />
    <path id="-" fill="#ffffff" stroke="none"
        d="M 12.366651 8.34799 L 15.515038 8.34799 C 15.754423 8.347724 15.969376 8.494557 16.056192 8.717646 C 16.143007 8.940734 16.083845 9.19424 15.907248 9.355854 L 10.440061 14.36665 C 10.21823 14.570274 9.877469 14.570274 9.655639 14.36665 L 4.188451 9.355854 C 4.011855 9.19424 3.952693 8.940734 4.039508 8.717646 C 4.126323 8.494557 4.341277 8.347724 4.580662 8.34799 L 7.730237 8.34799 L 7.730237 1.866995 C 7.730237 1.225195 8.248431 0.707001 8.889043 0.707001 L 11.206656 0.707001 C 11.848455 0.707001 12.367839 1.226383 12.367839 1.866995 L 12.367839 8.346802 L 12.366651 8.346802 Z" />
</svg>