<?xml version="1.0" encoding="UTF-8" standalone="no"?>
<!DOCTYPE svg PUBLIC "-//W3C//DTD SVG 1.1//EN" "http://www.w3.org/Graphics/SVG/1.1/DTD/svg11.dtd">
<!-- Created with Vectornator (http://vectornator.io/) -->
<svg height="100%" stroke-miterlimit="10" style="fill-rule:nonzero;clip-rule:evenodd;stroke-linecap:round;stroke-linejoin:round;" version="1.1" viewBox="0 0 600 300" width="100%" xml:space="preserve" xmlns="http://www.w3.org/2000/svg" xmlns:xlink="http://www.w3.org/1999/xlink">
<defs>
<path d="M159.901 186.802C160.737 180.947 160.737 176.765 160.737 169.238L160.737 107.343C160.737 98.9787 160.737 93.9602 159.901 89.7781L184.157 89.7781C183.32 94.7966 183.32 98.9787 183.32 107.343L183.32 124.071C190.011 117.38 197.539 114.034 207.576 114.034C215.94 114.034 221.795 116.543 225.977 120.725C230.996 125.744 232.669 130.762 232.669 140.799L232.669 170.074C232.669 176.765 232.669 182.62 233.505 187.639L209.249 187.639C210.085 181.784 210.085 176.765 210.085 170.074L210.085 145.818C210.085 140.799 209.249 139.127 208.413 136.617C206.74 134.108 204.231 133.272 200.885 133.272C194.194 133.272 187.502 137.454 183.32 145.818L183.32 169.238C183.32 175.929 183.32 180.947 184.157 186.802C184.157 186.802 159.901 186.802 159.901 186.802ZM253.252 113.198C253.252 107.343 253.252 102.324 252.415 97.3059L276.671 97.3059C275.835 102.324 275.835 107.343 275.835 113.198L275.835 115.707L280.017 115.707C285.036 115.707 287.545 115.707 291.727 114.871L291.727 134.108C288.381 133.272 285.036 133.272 280.853 133.272L275.835 133.272L275.835 163.383C275.835 166.728 276.671 168.401 278.344 169.238C280.017 170.074 281.69 170.91 283.363 170.91C286.708 170.91 288.381 170.074 291.727 168.401L293.4 185.966C288.381 187.639 283.363 188.475 277.508 188.475C269.144 188.475 264.125 186.802 259.943 184.293C255.761 180.947 254.088 176.765 254.088 169.238L254.088 133.272L249.906 133.272C246.56 133.272 243.215 133.272 239.869 134.108L239.869 114.871C243.215 115.707 246.56 115.707 249.906 115.707L254.088 115.707L254.088 113.198L253.252 113.198ZM313.292 113.198C313.292 107.343 313.292 102.324 312.455 97.3059L336.711 97.3059C335.875 102.324 335.875 107.343 335.875 113.198L335.875 115.707L340.057 115.707C345.075 115.707 347.585 115.707 351.767 114.871L351.767 134.108C348.421 133.272 345.075 133.272 340.893 133.272L335.875 133.272L335.875 163.383C335.875 166.728 336.711 168.401 338.384 169.238C340.057 170.074 341.73 170.91 343.403 170.91C346.748 170.91 348.421 170.074 351.767 168.401L353.44 185.966C348.421 187.639 343.403 188.475 337.548 188.475C329.183 188.475 324.165 186.802 319.983 184.293C315.801 180.947 314.128 176.765 314.128 169.238L314.128 133.272L309.946 133.272C306.6 133.272 303.255 133.272 299.909 134.108L299.909 114.871C303.255 115.707 306.6 115.707 309.946 115.707L314.128 115.707L314.128 113.198L313.292 113.198ZM358.131 208.549C358.967 203.531 358.967 197.676 358.967 191.821L358.967 134.945C358.967 127.417 358.967 122.398 358.131 116.543L381.55 116.543L381.55 123.235C388.242 117.38 395.769 114.871 405.806 114.871C415.843 114.871 424.208 118.216 430.899 124.071C436.754 129.926 440.099 139.127 440.099 151.673C440.099 163.383 436.754 173.42 430.062 180.111C424.208 185.966 415.843 189.311 405.806 189.311C399.952 189.311 394.097 188.475 389.915 185.966C386.569 184.293 384.896 183.457 381.55 180.947L381.55 193.494C381.55 200.185 381.55 205.203 382.387 210.222L358.131 210.222L358.131 208.549ZM411.661 165.055C415.007 161.71 416.68 156.691 416.68 150C416.68 138.29 409.989 130.762 399.115 130.762C389.078 130.762 381.55 139.127 381.55 150C381.55 160.873 389.078 169.238 399.952 169.238C404.134 170.074 408.316 168.401 411.661 165.055Z" id="Fill"/>
</defs>
<clipPath id="ArtboardFrame">
<rect height="300" width="600" x="0" y="0"/>
</clipPath>
<g clip-path="url(#ArtboardFrame)" id="无标题">
<path d="M0 300L0 0L600 0L600 300L0 300Z" fill="#146600" fill-rule="nonzero" opacity="1" stroke="none"/>
<path d="M299.64 389.409C237.027 387.89 176.525 363.202 133.837 317.333C92.5473 272.953 73.8245 211.961 78.2298 151.53C82.3497 95.1166 118.133 49.9107 156.445 8.33501C197.083-35.7288 239.974-82.852 299.64-88.6442C363.814-94.8444 426.295-66.2401 473.591-22.421C522.825 23.2133 558.812 84.4092 558.812 151.53C558.812 218.65 523.1 280.162 473.662 325.552C426.335 368.994 363.855 390.97 299.64 389.409" fill="#198000" fill-rule="nonzero" opacity="1" stroke="none"/>
<path d="M299.64 305.452C259.125 304.463 219.977 288.494 192.361 258.809C165.634 230.092 153.519 190.638 156.374 151.53C159.046 115.033 182.194 85.7756 206.985 58.8743C233.274 30.3618 261.032-0.128999 299.64-3.87152C341.165-7.88938 381.598 10.6193 412.191 38.9788C444.049 68.5009 467.34 108.098 467.34 151.53C467.34 194.961 444.232 234.763 412.242 264.132C381.619 292.236 341.185 306.462 299.64 305.452" fill="#1c8c00" fill-rule="nonzero" opacity="1" stroke="none"/>
<path d="M299.64 221.496C281.223 221.047 263.429 213.786 250.875 200.295C238.73 187.242 233.223 169.304 234.518 151.53C235.732 134.938 246.256 121.641 257.524 109.414C269.476 96.4525 282.09 82.594 299.64 80.891C318.516 79.0656 336.892 87.4786 350.802 100.368C365.282 113.788 375.867 131.787 375.867 151.53C375.867 171.272 365.364 189.363 350.822 202.712C336.902 215.489 318.526 221.954 299.64 221.496" fill="#1f9900" fill-rule="nonzero" opacity="1" stroke="none"/>
<g opacity="1">
<use fill="#ffffff" fill-rule="nonzero" stroke="none" xlink:href="#Fill"/>
<mask height="136.444" id="StrokeMask" maskUnits="userSpaceOnUse" width="297.957" x="150.142" y="81.7781">
<rect fill="#ffffff" height="136.444" stroke="none" width="297.957" x="150.142" y="81.7781"/>
<use fill="#000000" fill-rule="evenodd" stroke="none" xlink:href="#Fill"/>
</mask>
<use fill="none" mask="url(#StrokeMask)" stroke="#000000" stroke-linecap="butt" stroke-linejoin="miter" stroke-opacity="0.16" stroke-width="16" xlink:href="#Fill"/>
</g>
</g>
</svg>
