<?xml version="1.0" encoding="UTF-8" standalone="no"?>
<!DOCTYPE svg PUBLIC "-//W3C//DTD SVG 1.1//EN" "http://www.w3.org/Graphics/SVG/1.1/DTD/svg11.dtd">
<!-- Created with Vectornator (http://vectornator.io/) -->
<svg height="300.0pt" stroke-miterlimit="10" style="fill-rule:nonzero;clip-rule:evenodd;stroke-linecap:round;stroke-linejoin:round;" version="1.1" viewBox="0 0 600 300" width="600.0pt" xml:space="preserve" xmlns="http://www.w3.org/2000/svg" xmlns:xlink="http://www.w3.org/1999/xlink">
<defs>
<path d="M321.998 62.009C315.456 62.009 310.153 67.3122 310.153 73.854C310.153 80.3958 315.456 85.6989 321.998 85.6989C328.54 85.6989 333.843 80.3958 333.843 73.854C333.843 67.3122 328.54 62.009 321.998 62.009ZM321.998 214.301C315.456 214.301 310.153 219.604 310.153 226.146C310.153 232.688 315.456 237.991 321.998 237.991C328.54 237.991 333.843 232.688 333.843 226.146C333.843 219.604 328.54 214.301 321.998 214.301Z" id="Fill"/>
<path d="M276.31 65.7317C267.68 65.7317 260.404 70.9773 257.358 78.5919C255.328 77.9151 253.128 77.5767 250.928 77.5767C238.745 77.5767 228.93 87.391 228.93 99.5744C228.93 99.5744 228.93 99.5744 228.93 99.7436C218.27 102.113 210.148 111.589 210.148 122.926C210.148 126.31 210.825 129.525 212.178 132.571C205.748 138.324 201.856 146.616 201.856 155.415C201.856 156.43 201.856 157.276 202.025 158.122C202.025 158.291 202.025 158.461 202.025 158.63C202.195 159.476 202.195 160.491 202.364 161.337C202.364 161.507 202.364 161.507 202.364 161.676C202.533 162.522 202.702 163.368 203.041 164.214L203.041 164.383C203.379 165.229 203.718 166.075 204.056 167.091C204.056 167.091 204.056 167.26 204.225 167.26C204.902 168.952 205.917 170.644 206.933 172.167C206.933 172.167 206.933 172.336 207.102 172.336C208.117 173.859 209.302 175.213 210.655 176.567C210.825 176.736 210.825 176.736 210.994 176.905C211.671 177.413 212.178 178.089 212.855 178.597C213.024 178.766 213.194 178.935 213.363 178.935C213.87 179.274 214.378 179.612 214.886 179.951C215.224 180.12 215.393 180.289 215.732 180.628L215.901 180.797C216.07 180.797 216.07 180.966 216.239 180.966C220.977 183.843 226.392 185.535 232.315 185.535C249.067 185.535 262.773 171.829 262.773 155.076L262.773 146.616C262.773 143.739 260.573 141.539 257.697 141.539C254.82 141.539 252.62 143.739 252.62 146.616L252.62 155.076C252.62 166.244 243.483 175.382 232.315 175.382C228.254 175.382 224.531 174.198 221.316 172.167C219.962 171.321 218.608 170.306 217.593 169.121C217.424 168.952 217.255 168.783 217.255 168.613C216.916 168.275 216.578 167.767 216.239 167.26C216.07 167.091 215.901 166.921 215.732 166.583C215.393 166.075 215.055 165.568 214.716 165.06C214.716 164.891 214.547 164.891 214.547 164.722C214.209 164.045 213.87 163.368 213.532 162.691C213.363 162.522 213.363 162.183 213.194 162.014C213.024 161.507 212.855 160.999 212.686 160.491C212.686 160.153 212.517 159.984 212.517 159.645C212.347 159.138 212.347 158.63 212.178 158.122C212.178 157.953 212.178 157.615 212.009 157.445C212.009 157.107 212.009 156.261 212.009 155.415C212.009 148.477 215.563 142.047 221.485 138.324C223.346 137.14 224.192 134.94 223.685 132.74C223.516 132.063 223.346 131.217 222.839 130.54C221.147 128.171 220.3 125.633 220.3 122.757C220.3 116.157 225.038 110.742 231.299 109.389C235.022 116.496 242.298 121.403 250.928 121.403C253.805 121.403 256.005 119.203 256.005 116.327C256.005 113.45 253.805 111.25 250.928 111.25C245.683 111.25 241.114 107.697 239.591 102.959C239.422 102.451 239.252 101.943 239.252 101.436C239.252 101.267 239.252 101.267 239.252 101.097C239.252 100.59 239.083 100.082 239.083 99.4052C239.083 92.8059 244.329 87.5603 250.928 87.5603C253.466 87.5603 256.005 88.4063 258.035 89.9292C259.558 91.1137 261.589 91.283 263.281 90.4369C264.973 89.5908 266.157 87.8987 266.157 85.8681C266.157 85.8681 266.157 85.8681 266.157 85.6989C266.157 80.1149 270.726 75.7153 276.31 75.7153C281.894 75.7153 286.463 80.2841 286.463 85.8681L286.463 206.01C286.463 217.178 277.325 226.315 266.157 226.315C257.527 226.315 249.913 220.9 247.036 212.778C246.359 210.578 244.16 209.225 241.96 209.394L241.452 209.394C241.283 209.394 240.945 209.394 240.775 209.394C229.607 209.394 220.47 200.256 220.47 189.088C220.47 186.212 218.27 184.012 215.393 184.012C212.517 184.012 210.317 186.212 210.317 189.088C210.317 205.164 223.008 218.531 238.914 219.547C243.99 229.869 254.482 236.468 266.157 236.468C282.909 236.468 296.616 222.762 296.616 206.01L296.616 85.8681C296.616 74.8693 287.478 65.7317 276.31 65.7317Z" id="Fill_2"/>
<path d="M357.533 199.072C356.179 199.072 354.994 198.564 353.979 197.549L336.889 180.458L313.537 180.458C310.66 180.458 308.461 178.259 308.461 175.382C308.461 172.505 310.66 170.306 313.537 170.306L338.919 170.306C340.273 170.306 341.626 170.813 342.473 171.829L361.086 190.442C363.117 192.473 363.117 195.688 361.086 197.549C360.071 198.564 358.886 199.072 357.533 199.072ZM338.919 129.694L313.537 129.694C310.66 129.694 308.461 127.495 308.461 124.618C308.461 121.741 310.66 119.542 313.537 119.542L336.889 119.542L353.979 102.451C356.01 100.42 359.225 100.42 361.086 102.451C363.117 104.482 363.117 107.697 361.086 109.558L342.473 128.171C341.626 129.187 340.273 129.694 338.919 129.694ZM369.377 155.076L313.537 155.076C310.66 155.076 308.461 152.877 308.461 150C308.461 147.123 310.66 144.924 313.537 144.924L369.377 144.924C372.254 144.924 374.454 147.123 374.454 150C374.454 152.877 372.254 155.076 369.377 155.076Z" id="Fill_3"/>
<path d="M381.222 138.155C374.681 138.155 369.377 143.458 369.377 150C369.377 156.542 374.681 161.845 381.222 161.845C387.764 161.845 393.067 156.542 393.067 150C393.067 143.458 387.764 138.155 381.222 138.155ZM365.993 85.6989C359.451 85.6989 354.148 91.0021 354.148 97.5438C354.148 104.086 359.451 109.389 365.993 109.389C372.535 109.389 377.838 104.086 377.838 97.5438C377.838 91.0021 372.535 85.6989 365.993 85.6989ZM365.993 190.611C359.451 190.611 354.148 195.914 354.148 202.456C354.148 208.998 359.451 214.301 365.993 214.301C372.535 214.301 377.838 208.998 377.838 202.456C377.838 195.914 372.535 190.611 365.993 190.611Z" id="Fill_4"/>
</defs>
<clipPath id="ArtboardFrame">
<rect height="300" width="600" x="0" y="0"/>
</clipPath>
<g clip-path="url(#ArtboardFrame)" id="无标题">
<g opacity="1">
<g opacity="1">
<path d="M-0.000153259 300L-0.000153259-0.00014978L600-0.00014978L600 300L-0.000153259 300Z" fill="#e6282a" fill-rule="nonzero" opacity="1" stroke="none"/>
<path d="M-63.9735 125.866C-42.3794 103.883-19.1361 87.6698 8.12319 85.0179C100.637 76.0179 146.894 221.818 239.406 231.018C331.92 240.218 391.556 118.018 470.689 131.018C549.823 144.018 607.401 265.018 640.278 298.018" fill="none" opacity="1" stroke="#ff4346" stroke-linecap="butt" stroke-linejoin="miter" stroke-width="5"/>
<path d="M-62.3068 207.33C15.2507 181.724 61.1472 98.3884 145.497 96.0179C238.008 93.4179 284.264 189.418 376.78 200.018C469.291 210.618 556.403 132.618 608.064 149.018C629.607 155.858 640.409 174.501 642.028 197.008" fill="none" opacity="1" stroke="#ff4346" stroke-linecap="butt" stroke-linejoin="miter" stroke-width="5"/>
<path d="M655.726 149.189C645.328 149.364 635.208 150.247 625.57 152.018C533.055 169.018 486.799 271.618 394.287 273.018C301.772 274.418 255.516 167.218 163.004 159.018C70.4894 150.818-22.0238 217.418-68.279 232.018" fill="none" opacity="1" stroke="#ff4346" stroke-linecap="butt" stroke-linejoin="miter" stroke-width="5"/>
<path d="M485.3-37.7404C455.771-9.31634 422.743 15.1836 379.784 27.6729C245.192 66.8015 152.372-29.8917 15.9707 0.92983C3.45982 3.75681-8.89766 7.28224-21.0737 11.3821" fill="none" opacity="1" stroke="#ff4346" stroke-linecap="butt" stroke-linejoin="miter" stroke-width="5"/>
<path d="M598.443-29.8659C559.382 4.55961 519.802 36.6348 467.752 40.3017C397.703 45.2361 350.241-2.68846 296.237-39.2865" fill="none" opacity="1" stroke="#ff4346" stroke-linecap="butt" stroke-linejoin="miter" stroke-width="5"/>
<path d="M-13.9828 317.613C20.2024 285.289 56.4557 259.289 101.142 259.213C146.556 259.136 183.26 285.37 217.937 317.886" fill="none" opacity="1" stroke="#ff4346" stroke-linecap="butt" stroke-linejoin="miter" stroke-width="5"/>
</g>
</g>
<g opacity="1">
<g opacity="1">
<use fill="#ffffff" fill-rule="nonzero" stroke="none" xlink:href="#Fill"/>
<mask height="197.982" id="StrokeMask" maskUnits="userSpaceOnUse" width="45.6899" x="299.153" y="51.009">
<rect fill="#ffffff" height="197.982" stroke="none" width="45.6899" x="299.153" y="51.009"/>
<use fill="#000000" fill-rule="evenodd" stroke="none" xlink:href="#Fill"/>
</mask>
<use fill="none" mask="url(#StrokeMask)" stroke="#000000" stroke-linecap="butt" stroke-linejoin="miter" stroke-opacity="0.3" stroke-width="22" xlink:href="#Fill"/>
</g>
<path d="M291.539 86.0373C291.539 77.5767 284.771 70.8081 276.31 70.8081C267.849 70.8081 261.081 77.5767 261.081 86.0373L261.081 86.0373C258.204 83.8376 254.82 82.6531 250.928 82.6531C241.621 82.6531 234.007 90.2677 234.007 99.5744C234.007 101.436 234.345 103.128 234.853 104.651C234.514 104.651 234.345 104.651 234.007 104.651C223.685 104.651 215.393 112.942 215.393 123.264C215.393 127.325 216.578 130.879 218.778 133.925C211.671 138.493 206.933 146.277 206.933 155.415C206.933 164.383 211.671 172.336 218.608 176.736C216.578 180.458 215.393 184.689 215.393 189.258C215.393 203.302 226.731 214.64 240.775 214.64C241.283 214.64 241.791 214.64 242.298 214.64C245.683 224.454 255.158 231.561 266.157 231.561C280.202 231.561 291.539 220.224 291.539 206.179C291.539 192.303 291.539 94.498 291.539 86.0373Z" fill="#ffffff" fill-rule="nonzero" opacity="1" stroke="none"/>
<g opacity="1">
<use fill="#000000" fill-opacity="0.3" fill-rule="nonzero" stroke="none" xlink:href="#Fill_2"/>
<mask height="174.736" id="StrokeMask_2" maskUnits="userSpaceOnUse" width="98.7595" x="199.856" y="63.7317">
<rect fill="#ffffff" height="174.736" stroke="none" width="98.7595" x="199.856" y="63.7317"/>
<use fill="#000000" fill-rule="evenodd" stroke="none" xlink:href="#Fill_2"/>
</mask>
<use fill="none" mask="url(#StrokeMask_2)" stroke="#000000" stroke-linecap="butt" stroke-linejoin="miter" stroke-opacity="0.3" stroke-width="4" xlink:href="#Fill_2"/>
</g>
<path d="M227.238 139.17L218.778 139.17C215.901 139.17 213.701 136.971 213.701 134.094C213.701 131.217 215.901 129.018 218.778 129.018L227.238 129.018C230.115 129.018 232.315 131.217 232.315 134.094C232.315 136.971 230.115 139.17 227.238 139.17Z" fill="#444b54" fill-rule="nonzero" opacity="0" stroke="none"/>
<g opacity="1">
<g opacity="1">
<use fill="#71c2ff" fill-rule="nonzero" stroke="none" xlink:href="#Fill_3"/>
<mask height="110.144" id="StrokeMask_3" maskUnits="userSpaceOnUse" width="77.9932" x="302.461" y="94.9281">
<rect fill="#ffffff" height="110.144" stroke="none" width="77.9932" x="302.461" y="94.9281"/>
<use fill="#000000" fill-rule="evenodd" stroke="none" xlink:href="#Fill_3"/>
</mask>
<use fill="none" mask="url(#StrokeMask_3)" stroke="#000000" stroke-linecap="butt" stroke-linejoin="miter" stroke-opacity="0.3" stroke-width="12" xlink:href="#Fill_3"/>
</g>
<g opacity="1">
<use fill="#ffffff" fill-rule="nonzero" stroke="none" xlink:href="#Fill_4"/>
<mask height="150.602" id="StrokeMask_4" maskUnits="userSpaceOnUse" width="60.9191" x="343.148" y="74.6989">
<rect fill="#ffffff" height="150.602" stroke="none" width="60.9191" x="343.148" y="74.6989"/>
<use fill="#000000" fill-rule="evenodd" stroke="none" xlink:href="#Fill_4"/>
</mask>
<use fill="none" mask="url(#StrokeMask_4)" stroke="#000000" stroke-linecap="butt" stroke-linejoin="miter" stroke-opacity="0.3" stroke-width="22" xlink:href="#Fill_4"/>
</g>
<path d="M357.533 199.072C356.179 199.072 354.994 198.564 353.979 197.549L336.889 180.458L313.537 180.458C310.66 180.458 308.461 178.259 308.461 175.382C308.461 172.505 310.66 170.306 313.537 170.306L338.919 170.306C340.273 170.306 341.626 170.813 342.473 171.829L361.086 190.442C363.117 192.473 363.117 195.688 361.086 197.549C360.071 198.564 358.886 199.072 357.533 199.072ZM338.919 129.694L313.537 129.694C310.66 129.694 308.461 127.495 308.461 124.618C308.461 121.741 310.66 119.542 313.537 119.542L336.889 119.542L353.979 102.451C356.01 100.42 359.225 100.42 361.086 102.451C363.117 104.482 363.117 107.697 361.086 109.558L342.473 128.171C341.626 129.187 340.273 129.694 338.919 129.694ZM369.377 155.076L313.537 155.076C310.66 155.076 308.461 152.877 308.461 150C308.461 147.123 310.66 144.924 313.537 144.924L369.377 144.924C372.254 144.924 374.454 147.123 374.454 150C374.454 152.877 372.254 155.076 369.377 155.076Z" fill="#71c2ff" fill-rule="nonzero" opacity="1" stroke="none"/>
<path d="M381.222 166.921C371.916 166.921 364.301 159.307 364.301 150C364.301 140.693 371.916 133.079 381.222 133.079C390.529 133.079 398.144 140.693 398.144 150C398.144 159.307 390.529 166.921 381.222 166.921ZM381.222 143.231C377.5 143.231 374.454 146.277 374.454 150C374.454 153.723 377.5 156.769 381.222 156.769C384.945 156.769 387.991 153.723 387.991 150C387.991 146.277 384.945 143.231 381.222 143.231ZM365.993 114.465C356.686 114.465 349.072 106.851 349.072 97.5438C349.072 88.2371 356.686 80.6225 365.993 80.6225C375.3 80.6225 382.915 88.2371 382.915 97.5438C382.915 106.851 375.3 114.465 365.993 114.465ZM365.993 90.7753C362.271 90.7753 359.225 93.8212 359.225 97.5438C359.225 101.267 362.271 104.312 365.993 104.312C369.716 104.312 372.762 101.267 372.762 97.5438C372.762 93.8212 369.716 90.7753 365.993 90.7753ZM321.998 90.7753C312.691 90.7753 305.076 83.1607 305.076 73.854C305.076 64.5472 312.691 56.9326 321.998 56.9326C331.304 56.9326 338.919 64.5472 338.919 73.854C338.919 83.1607 331.304 90.7753 321.998 90.7753ZM321.998 67.0854C318.275 67.0854 315.229 70.1313 315.229 73.854C315.229 77.5767 318.275 80.6225 321.998 80.6225C325.72 80.6225 328.766 77.5767 328.766 73.854C328.766 70.1313 325.72 67.0854 321.998 67.0854ZM365.993 219.377C356.686 219.377 349.072 211.763 349.072 202.456C349.072 193.149 356.686 185.535 365.993 185.535C375.3 185.535 382.915 193.149 382.915 202.456C382.915 211.763 375.3 219.377 365.993 219.377ZM365.993 195.688C362.271 195.688 359.225 198.733 359.225 202.456C359.225 206.179 362.271 209.225 365.993 209.225C369.716 209.225 372.762 206.179 372.762 202.456C372.762 198.733 369.716 195.688 365.993 195.688ZM321.998 243.067C312.691 243.067 305.076 235.453 305.076 226.146C305.076 216.839 312.691 209.225 321.998 209.225C331.304 209.225 338.919 216.839 338.919 226.146C338.919 235.453 331.304 243.067 321.998 243.067ZM321.998 219.377C318.275 219.377 315.229 222.423 315.229 226.146C315.229 229.869 318.275 232.915 321.998 232.915C325.72 232.915 328.766 229.869 328.766 226.146C328.766 222.423 325.72 219.377 321.998 219.377Z" fill="#71c2ff" fill-rule="nonzero" opacity="1" stroke="none"/>
</g>
</g>
</g>
</svg>
