<?xml version="1.0" encoding="UTF-8"?>
<!-- Generated by Pixelmator Pro 3.6.11 -->
<svg width="800" height="400" viewBox="0 0 800 400" xmlns="http://www.w3.org/2000/svg">
    <g id="g1-">
        <path id="path1" fill="#672687" stroke="none" d="M 0 399.999603 L 0 0 L 799.999207 0 L 799.999207 399.999603 Z"/>
        <path id="path2" fill="#5c1f79" stroke="none" d="M 524.883911 399.999664 L 799.999207 124.884399 L 799.999207 399.999664 Z"/>
        <path id="path3" fill="#581d75" stroke="none" d="M 0 124.884735 L 275.115234 400 L 0 400 Z"/>
        <path id="path4" fill="#5e217c" stroke="none" d="M 39.999958 399.999664 L 439.999573 9.2e-05 L 787.999146 9.2e-05 L 387.999603 399.999664 Z"/>
        <path id="path5" fill="#571d74" stroke="none" d="M 626.666016 399.999664 L 226.666443 9.2e-05 L 378.66626 9.2e-05 L 778.665894 399.999664 Z"/>
    </g>
    <g id="mqtt-logo-transp">
        <g id="g2">
            <path id="path6" fill="#ffffff" stroke="none" d="M 323.026978 201.877411 L 325.479584 207.702362 L 330.691406 196.205734 L 357.925629 143.321259 L 361.604553 141.890564 L 382.042999 141.890564 L 382.042999 242.345535 L 361.50235 242.345535 L 361.911133 175.51181 L 335.29007 227.169998 C 334.472504 228.805069 333.348419 229.98027 331.968811 230.848907 C 330.589203 231.666443 328.954132 232.075211 327.165771 232.075211 L 323.997803 232.075211 C 322.209442 232.075211 320.625458 231.666443 319.194794 230.848907 C 317.815186 230.031372 316.691071 228.805069 315.873535 227.169998 L 288.996979 175.409622 L 289.559021 242.396622 L 269.018372 242.396622 L 269.018372 141.94165 L 289.456818 141.94165 L 293.135773 143.372345 L 323.026978 201.877411 Z"/>
            <path id="path7" fill="#ffffff" stroke="none" d="M 492.206238 192.118042 C 492.206238 196.461212 491.746399 200.600006 490.877747 204.585495 C 489.958038 208.570999 488.680634 212.30101 486.994476 215.775558 C 485.308258 219.250092 483.264435 222.520233 480.760742 225.48381 C 478.308136 228.498489 475.497833 231.104385 472.380951 233.403717 L 497.826813 261.200012 L 478.665771 261.200012 C 475.906586 261.200012 473.402863 260.842346 471.154663 260.178101 C 468.906433 259.513824 466.913666 258.185333 465.176422 256.141479 L 452.657867 242.192245 L 440.037109 243.520752 C 432.219421 243.520752 425.117035 242.192245 418.678955 239.586349 C 412.240814 236.980438 406.722443 233.352615 402.174896 228.702881 C 397.576233 224.104218 394.050598 218.636932 391.546875 212.403214 C 389.043182 206.169479 387.765778 199.373688 387.765778 192.118042 C 387.765778 184.862396 389.043182 178.117706 391.546875 171.832886 C 394.050598 165.599167 397.576233 160.131866 402.174896 155.533218 C 406.77356 150.93457 412.240814 147.306732 418.678955 144.700851 C 425.117035 142.09494 432.219421 140.766449 440.037109 140.766449 C 447.854828 140.766449 454.957184 142.09494 461.395294 144.751938 C 467.833405 147.408936 473.30069 151.036758 477.848236 155.635422 C 482.395813 160.23407 485.921417 165.650253 488.42514 171.935074 C 490.928833 178.168808 492.206238 184.862396 492.206238 192.118042 Z M 468.344391 192.118042 C 468.344391 187.161728 467.680115 182.665268 466.40271 178.679764 C 465.125305 174.69426 463.285858 171.32193 460.833252 168.562729 C 458.431732 165.803543 455.46814 163.708603 451.993622 162.226807 C 448.519043 160.745026 444.533569 160.029678 440.037109 160.029678 C 435.540649 160.029678 431.504059 160.745026 427.978455 162.226807 C 424.452789 163.708603 421.489227 165.803543 419.087708 168.562729 C 416.686188 171.32193 414.846741 174.69426 413.518219 178.679764 C 412.240814 182.665268 411.576569 187.110626 411.576569 192.118042 C 411.576569 197.125473 412.240814 201.621933 413.518219 205.607422 C 414.795624 209.592926 416.635101 212.965271 419.087708 215.724457 C 421.489227 218.483643 424.452789 220.578583 427.978455 222.060379 C 431.504059 223.491058 435.489532 224.257507 440.037109 224.257507 C 444.482483 224.257507 448.467987 223.54216 451.993622 222.060379 C 455.46814 220.629684 458.431732 218.483643 460.833252 215.724457 C 463.234772 212.965271 465.074219 209.592926 466.40271 205.607422 C 467.680115 201.621933 468.344391 197.125473 468.344391 192.118042 Z"/>
            <path id="path8" fill="#ffffff" stroke="none" d="M 567.062073 141.890564 L 567.062073 160.387344 L 539.82782 160.387344 L 539.82782 242.396622 L 516.528015 242.396622 L 516.528015 160.387344 L 489.293793 160.387344 L 489.293793 141.890564 L 567.062073 141.890564 Z"/>
            <path id="path9" fill="#ffffff" stroke="none" d="M 656.224792 141.890564 L 656.224792 160.387344 L 627.968628 160.387344 L 627.968628 242.396622 L 604.668823 242.396622 L 604.668823 160.387344 L 577.434631 160.387344 L 577.434631 141.890564 L 656.224792 141.890564 Z"/>
        </g>
        <path id="path10" fill="#ffffff" stroke="none" d="M 142.606583 198.760544 L 142.300003 238.411133 C 142.300003 241.272522 144.650421 243.62294 147.51181 243.62294 L 188.337601 243.62294 C 187.979935 218.841324 167.592575 198.760544 142.606583 198.760544 Z"/>
        <path id="path11" fill="#ffffff" stroke="none" d="M 142.606583 166.059021 L 142.300003 182.920746 C 175.972351 183.074036 203.359863 210.154984 203.717545 243.62294 L 221.192413 243.62294 C 220.885834 200.804382 185.731705 166.059021 142.606583 166.059021 Z"/>
        <path id="path12" fill="#ffffff" stroke="none" d="M 245.97403 238.462234 L 245.97403 202.643845 C 234.119736 173.621246 210.257843 150.730179 180.519897 140 L 147.51181 140 C 144.650421 140 142.300003 142.350433 142.300003 145.211807 L 142.300003 150.219223 C 194.111465 150.372513 236.265778 192.118042 236.572357 243.62294 L 240.762238 243.62294 C 243.623611 243.62294 245.97403 241.323608 245.97403 238.462234 Z"/>
        <path id="path13" fill="#ffffff" stroke="none" d="M 232.331375 154.460205 C 237.134399 159.263245 242.039627 165.343674 245.97403 170.708771 L 245.97403 145.160706 C 245.97403 142.299316 243.674713 140 240.813324 140 L 214.498825 140 C 220.579254 144.240967 226.915176 149.095108 232.331375 154.460205 Z"/>
    </g>
</svg>
