<?xml version="1.0" encoding="UTF-8" standalone="no"?>
<!DOCTYPE svg PUBLIC "-//W3C//DTD SVG 1.1//EN" "http://www.w3.org/Graphics/SVG/1.1/DTD/svg11.dtd">
<!-- Created with Vectornator (http://vectornator.io/) -->
<svg height="300.0pt" stroke-miterlimit="10" style="fill-rule:nonzero;clip-rule:evenodd;stroke-linecap:round;stroke-linejoin:round;" version="1.1" viewBox="0 0 600 300" width="600.0pt" xml:space="preserve" xmlns="http://www.w3.org/2000/svg" xmlns:xlink="http://www.w3.org/1999/xlink">
<defs>
<path d="M213.002 150C213.002 101.676 251.952 62.5016 300 62.5016C348.048 62.5016 386.998 101.676 386.998 150C386.998 198.324 348.048 237.498 300 237.498C251.952 237.498 213.002 198.324 213.002 150Z" id="Fill"/>
</defs>
<clipPath id="ArtboardFrame">
<rect height="300" width="600" x="0" y="0"/>
</clipPath>
<g clip-path="url(#ArtboardFrame)" id="g">
<path d="M2e-05 300L2e-05 0L600 0C600 0 600 131.55 600 186C600 228.628 600 300 600 300L2e-05 300Z" fill="#0fbd8c" fill-rule="nonzero" opacity="1" stroke="none"/>
<g opacity="1">
<path d="M377.769-6.18319C370.871 16.4205 301.084 28.7791 299.821 48.4929C298.557 68.2085 370.698 24.4862 375.858 36.0695C381.018 47.6537 301.354 106.167 259.192 123.272C233.786 133.578 213.743 119.013 242.995 96.4697C262.566 81.388 253.355 68.4285 235.348 77.2929C217.34 86.159 207.76 63.2951 232.637 43.7545C257.514 24.2148 385.572-31.7638 377.769-6.18319ZM188.434 52.0185C169.115 80.8417 132.183 62.8608 155.591 32.6355C176.305 5.89559 242.835-21.8179 246.086-6.9349C248.473 3.99488 211.162 18.1052 188.434 52.0185ZM29.5612-6.15506C61.0101-36.6643 87.5754-66.399 106.282-65.4789C125.719-64.5228 108.358-27.3245 75.3552 1.21121C51.9725 21.429 74.8074 31.6883 97.2308 19.6166C124.329 5.02915 145.452 14.7898 110.479 46.7757C75.506 78.7633 22.4025 102.301-6.5635 96.2661C-35.5282 90.231 34.122 71.7983 36.886 47.3819C39.6009 23.3904-2.64021 71.8238-24.6649 55.7119C-46.0424 40.075 0.35236 22.1793 29.5617-6.15462L29.5612-6.15506ZM382.017 84.552C378.466 67.18 421.812 12.4459 474.969-1.98447C528.401-16.4889 578.637-22.1295 580.793-9.5842C582.932 2.88784 549.043 12.3093 506.943 32.494C486.588 42.252 508.123 50.4758 521.374 45.2044C565.202 27.7717 561.778 54.4116 524.774 73.1937C495.859 87.8714 471.402 95.5702 456.913 99.102C435.899 104.225 431.519 90.6519 443.517 82.9928C466.935 68.042 455.674 54.2415 434.711 65.8426C421.433 73.1906 387.763 112.649 382.017 84.552ZM362.46 99.4801C374.886 94.506 378.11 103.623 378.11 110.988C378.11 118.356 365.682 121.117 358.776 116.974C351.871 112.831 353.806 102.942 362.46 99.4796L362.46 99.4801ZM12.7561 130.901C17.4958 119.932 70.6279 118.179 110.137 82.7473C124.352 69.9989 141.776 85.5707 137.64 97.5209C133.506 109.471 120.872 112.62 101.096 120.309C81.3229 127.998 106.467 138.247 139.094 122.851C157.757 114.046 177.754 128.889 155.219 144.175C136.384 156.951 92.9843 160.614 94.1699 171.573C94.8256 177.659 126.331 163.018 132.056 176.139C136.815 187.043 125.537 199.574 94.0226 202.118C61.9162 204.71 36.9462 198.107 36.5726 182.334C36.1494 164.478 73.8178 159.639 56.893 154.119C39.8736 148.571 4.40286 150.239 12.7561 130.902L12.7561 130.901ZM203.452 92.6897C209.797 97.1022 209.994 102.729 203.25 110.535C194.506 120.658 179.914 120.187 175.628 116.485C171.343 112.783 181.031 103.196 184.73 97.6727C188.43 92.1509 195.282 87.0098 203.452 92.6897ZM203.062 153.502C240.682 144.508 261.85 159.586 253.424 169.887C244.322 181.011 222.536 180.986 220.825 202.765C217.625 243.517 177.539 250.728 194.644 222.278C200.635 212.31 191.837 205.994 186.68 218.738C183.566 226.429 168.798 236.984 160.994 240.887C125.574 258.596 97.3334 232.866 122.667 225.716C139.151 221.063 153.961 209.874 163.421 184.249C168.46 170.594 186.538 157.453 203.062 153.502L203.062 153.502ZM90.9698 236.083C105.23 254.314 61.1761 255.332 44.9071 260.809C28.6372 266.286 62.1644 269.066 91.6585 268.76C121.156 268.453 116.692 291.106 83.1669 302.203C31.6588 319.25-14.257 301.547 25.2121 290.236C39.9317 286.015 29.4688 273.84 13.1297 275.596C-17.7245 278.913-40.5929 263.684-35.4005 251.787C-29.5408 238.36-15.0408 247.399-0.37746 248.402C14.2863 249.407 1.59378 235.034-17.3937 225.138C-50.0081 208.14-22.7236 179.227 5.28183 205.365C45.183 242.606 80.2926 222.433 90.9693 236.083L90.9698 236.083ZM238.911 280.28C217.856 323.275 174.627 319.051 180.696 304.375C186.764 289.699 161.801 301.655 150.238 298.979C138.676 296.306 131.82 276.206 174.753 272.338C227.648 267.568 228.885 215.392 246.549 226.287C258.696 233.776 246.716 264.343 238.911 280.281L238.911 280.28ZM554.693 85.7068C589.957 79.6458 597.767 91.7889 583.085 101.508C573.981 107.536 538.527 126.762 564.421 128.645C590.318 130.529 571.018 155.15 540.606 178.071C510.195 200.993 443.754 213.376 446.657 194.045C449.562 174.715 527.801 165.44 513.712 145.04C507.593 136.179 477.666 172.929 464.38 151.784C451.093 130.638 532.586 89.5043 554.692 85.7069L554.693 85.7068ZM325.17 121.931C336.426 112.402 359.446 126.163 338.74 145.047C333.947 149.418 321.628 153.604 328.988 157.918C351.223 170.951 418.992 103.253 430.203 125.463C435.593 136.143 408.565 160.027 379.063 174.947C357.284 185.961 365.225 206.139 397.55 186.258C429.876 166.376 435.58 189.811 417.673 205.192C399.767 220.571 285.365 273.837 277.571 245.371C271.504 223.232 335.421 227.287 327.467 212.983C321.628 202.487 277.176 230.357 261.441 212.257C246.212 194.744 303.216 183.141 299.566 172.64C296.684 164.354 269.407 176.029 268.879 155.744C268.471 140.023 297.927 144.987 325.169 121.931L325.17 121.931ZM483.315 263.456C490.158 227.459 553.563 193.9 577.89 184.877C616.167 170.685 656.164 175.416 633.585 187.028C611.007 198.642 551.657 237.099 582.204 239.738C597.239 241.037 614.232 252.191 582.204 278.644C561.874 295.438 491.017 318.644 487.147 303.806C483.277 288.967 568.428 263.16 541.98 260.578C515.532 257.998 480.117 280.289 483.315 263.456ZM389.946 250.535C410.606 240.208 429.712 227.701 451.706 222.98C480.389 216.824 452.098 255.634 424.563 268.225C412.231 273.863 426.998 281.378 438.865 275.617C471.112 259.963 485.137 271.989 451.836 294.136C443.557 299.643 417.977 312.68 386.917 316.662C355.561 320.685 356.376 309.141 366.079 304.814C380.032 298.592 389.59 285.103 352.18 296.496C285.306 316.861 245.691 313.47 260.915 296.496C275.134 280.645 323.071 283.961 389.946 250.535Z" fill="#ffffff" fill-opacity="0.73333" fill-rule="evenodd" opacity="0.1" stroke="none"/>
<path d="M377.769-6.18319C370.871 16.4205 301.084 28.7791 299.821 48.4929C298.557 68.2085 370.698 24.4862 375.858 36.0695C381.018 47.6537 301.354 106.167 259.192 123.272C233.786 133.578 213.743 119.013 242.995 96.4697C262.566 81.388 253.355 68.4285 235.348 77.2929C217.34 86.159 207.76 63.2951 232.637 43.7545C257.514 24.2148 385.572-31.7638 377.769-6.18319ZM188.434 52.0185C169.115 80.8417 132.183 62.8608 155.591 32.6355C176.305 5.89559 242.835-21.8179 246.086-6.9349C248.473 3.99488 211.162 18.1052 188.434 52.0185ZM29.5612-6.15506C61.0101-36.6643 87.5754-66.399 106.282-65.4789C125.719-64.5228 108.358-27.3245 75.3552 1.21121C51.9725 21.429 74.8074 31.6883 97.2308 19.6166C124.329 5.02915 145.452 14.7898 110.479 46.7757C75.506 78.7633 22.4025 102.301-6.5635 96.2661C-35.5282 90.231 34.122 71.7983 36.886 47.3819C39.6009 23.3904-2.64021 71.8238-24.6649 55.7119C-46.0424 40.075 0.35236 22.1793 29.5617-6.15462L29.5612-6.15506ZM382.017 84.552C378.466 67.18 421.812 12.4459 474.969-1.98447C528.401-16.4889 578.637-22.1295 580.793-9.5842C582.932 2.88784 549.043 12.3093 506.943 32.494C486.588 42.252 508.123 50.4758 521.374 45.2044C565.202 27.7717 561.778 54.4116 524.774 73.1937C495.859 87.8714 471.402 95.5702 456.913 99.102C435.899 104.225 431.519 90.6519 443.517 82.9928C466.935 68.042 455.674 54.2415 434.711 65.8426C421.433 73.1906 387.763 112.649 382.017 84.552ZM362.46 99.4801C374.886 94.506 378.11 103.623 378.11 110.988C378.11 118.356 365.682 121.117 358.776 116.974C351.871 112.831 353.806 102.942 362.46 99.4796L362.46 99.4801ZM12.7561 130.901C17.4958 119.932 70.6279 118.179 110.137 82.7473C124.352 69.9989 141.776 85.5707 137.64 97.5209C133.506 109.471 120.872 112.62 101.096 120.309C81.3229 127.998 106.467 138.247 139.094 122.851C157.757 114.046 177.754 128.889 155.219 144.175C136.384 156.951 92.9843 160.614 94.1699 171.573C94.8256 177.659 126.331 163.018 132.056 176.139C136.815 187.043 125.537 199.574 94.0226 202.118C61.9162 204.71 36.9462 198.107 36.5726 182.334C36.1494 164.478 73.8178 159.639 56.893 154.119C39.8736 148.571 4.40286 150.239 12.7561 130.902L12.7561 130.901ZM203.452 92.6897C209.797 97.1022 209.994 102.729 203.25 110.535C194.506 120.658 179.914 120.187 175.628 116.485C171.343 112.783 181.031 103.196 184.73 97.6727C188.43 92.1509 195.282 87.0098 203.452 92.6897ZM203.062 153.502C240.682 144.508 261.85 159.586 253.424 169.887C244.322 181.011 222.536 180.986 220.825 202.765C217.625 243.517 177.539 250.728 194.644 222.278C200.635 212.31 191.837 205.994 186.68 218.738C183.566 226.429 168.798 236.984 160.994 240.887C125.574 258.596 97.3334 232.866 122.667 225.716C139.151 221.063 153.961 209.874 163.421 184.249C168.46 170.594 186.538 157.453 203.062 153.502L203.062 153.502ZM90.9698 236.083C105.23 254.314 61.1761 255.332 44.9071 260.809C28.6372 266.286 62.1644 269.066 91.6585 268.76C121.156 268.453 116.692 291.106 83.1669 302.203C31.6588 319.25-14.257 301.547 25.2121 290.236C39.9317 286.015 29.4688 273.84 13.1297 275.596C-17.7245 278.913-40.5929 263.684-35.4005 251.787C-29.5408 238.36-15.0408 247.399-0.37746 248.402C14.2863 249.407 1.59378 235.034-17.3937 225.138C-50.0081 208.14-22.7236 179.227 5.28183 205.365C45.183 242.606 80.2926 222.433 90.9693 236.083L90.9698 236.083ZM238.911 280.28C217.856 323.275 174.627 319.051 180.696 304.375C186.764 289.699 161.801 301.655 150.238 298.979C138.676 296.306 131.82 276.206 174.753 272.338C227.648 267.568 228.885 215.392 246.549 226.287C258.696 233.776 246.716 264.343 238.911 280.281L238.911 280.28ZM554.693 85.7068C589.957 79.6458 597.767 91.7889 583.085 101.508C573.981 107.536 538.527 126.762 564.421 128.645C590.318 130.529 571.018 155.15 540.606 178.071C510.195 200.993 443.754 213.376 446.657 194.045C449.562 174.715 527.801 165.44 513.712 145.04C507.593 136.179 477.666 172.929 464.38 151.784C451.093 130.638 532.586 89.5043 554.692 85.7069L554.693 85.7068ZM325.17 121.931C336.426 112.402 359.446 126.163 338.74 145.047C333.947 149.418 321.628 153.604 328.988 157.918C351.223 170.951 418.992 103.253 430.203 125.463C435.593 136.143 408.565 160.027 379.063 174.947C357.284 185.961 365.225 206.139 397.55 186.258C429.876 166.376 435.58 189.811 417.673 205.192C399.767 220.571 285.365 273.837 277.571 245.371C271.504 223.232 335.421 227.287 327.467 212.983C321.628 202.487 277.176 230.357 261.441 212.257C246.212 194.744 303.216 183.141 299.566 172.64C296.684 164.354 269.407 176.029 268.879 155.744C268.471 140.023 297.927 144.987 325.169 121.931L325.17 121.931ZM483.315 263.456C490.158 227.459 553.563 193.9 577.89 184.877C616.167 170.685 656.164 175.416 633.585 187.028C611.007 198.642 551.657 237.099 582.204 239.738C597.239 241.037 614.232 252.191 582.204 278.644C561.874 295.438 491.017 318.644 487.147 303.806C483.277 288.967 568.428 263.16 541.98 260.578C515.532 257.998 480.117 280.289 483.315 263.456ZM389.946 250.535C410.606 240.208 429.712 227.701 451.706 222.98C480.389 216.824 452.098 255.634 424.563 268.225C412.231 273.863 426.998 281.378 438.865 275.617C471.112 259.963 485.137 271.989 451.836 294.136C443.557 299.643 417.977 312.68 386.917 316.662C355.561 320.685 356.376 309.141 366.079 304.814C380.032 298.592 389.59 285.103 352.18 296.496C285.306 316.861 245.691 313.47 260.915 296.496C275.134 280.645 323.071 283.961 389.946 250.535Z" fill="#ffffff" fill-opacity="0.54118" fill-rule="evenodd" opacity="0.1" stroke="none"/>
</g>
<g opacity="1">
<path d="M403.995 31.6039C406.628 30.8976 408.684 28.8413 409.39 26.2084L411 20.2229C411.764 17.3933 415.778 17.3933 416.538 20.2229L418.152 26.2084C418.858 28.8413 420.914 30.8976 423.543 31.6039L429.528 33.2131C432.358 33.9775 432.358 37.9917 429.528 38.7561L423.543 40.3653C420.914 41.0716 418.858 43.1279 418.152 45.7563L416.538 51.7418C415.778 54.5714 411.764 54.5714 411 51.7418L409.39 45.7563C408.684 43.1279 406.628 41.0716 403.995 40.3653L398.009 38.7561C395.18 37.9917 395.18 33.9775 398.009 33.2131L403.995 31.6039Z" fill="#ffffff" fill-rule="evenodd" opacity="1" stroke="#000000" stroke-linecap="butt" stroke-linejoin="miter" stroke-opacity="0.12941" stroke-width="10"/>
<path d="M403.995 31.6039C406.628 30.8976 408.684 28.8413 409.39 26.2084L411 20.2229C411.764 17.3933 415.778 17.3933 416.538 20.2229L418.152 26.2084C418.858 28.8413 420.914 30.8976 423.543 31.6039L429.528 33.2131C432.358 33.9775 432.358 37.9917 429.528 38.7561L423.543 40.3653C420.914 41.0716 418.858 43.1279 418.152 45.7563L416.538 51.7418C415.778 54.5714 411.764 54.5714 411 51.7418L409.39 45.7563C408.684 43.1279 406.628 41.0716 403.995 40.3653L398.009 38.7561C395.18 37.9917 395.18 33.9775 398.009 33.2131L403.995 31.6039Z" fill="#ffffff" fill-rule="evenodd" opacity="1" stroke="none"/>
</g>
<g opacity="1">
<path d="M469.533 90.1373C473.865 88.9754 477.247 85.5927 478.409 81.2613L481.057 71.4147C482.314 66.7598 488.918 66.7598 490.168 71.4147L492.823 81.2613C493.984 85.5927 497.367 88.9754 501.691 90.1373L511.538 92.7846C516.193 94.0421 516.193 100.646 511.538 101.903L501.691 104.551C497.367 105.712 493.984 109.095 492.823 113.419L490.168 123.266C488.918 127.921 482.314 127.921 481.057 123.266L478.409 113.419C477.247 109.095 473.865 105.712 469.533 104.551L459.687 101.903C455.032 100.646 455.032 94.0421 459.687 92.7846L469.533 90.1373Z" fill="#ffffff" fill-rule="evenodd" opacity="1" stroke="#000000" stroke-linecap="butt" stroke-linejoin="miter" stroke-opacity="0.12941" stroke-width="10"/>
<path d="M469.533 90.1373C473.865 88.9754 477.247 85.5927 478.409 81.2613L481.057 71.4147C482.314 66.7598 488.918 66.7598 490.168 71.4147L492.823 81.2613C493.984 85.5927 497.367 88.9754 501.691 90.1373L511.538 92.7846C516.193 94.0421 516.193 100.646 511.538 101.903L501.691 104.551C497.367 105.712 493.984 109.095 492.823 113.419L490.168 123.266C488.918 127.921 482.314 127.921 481.057 123.266L478.409 113.419C477.247 109.095 473.865 105.712 469.533 104.551L459.687 101.903C455.032 100.646 455.032 94.0421 459.687 92.7846L469.533 90.1373Z" fill="#ffffff" fill-rule="evenodd" opacity="1" stroke="none"/>
</g>
<g opacity="1">
<path d="M150.488 198.71C155.205 197.445 158.888 193.762 160.153 189.046L163.035 178.325C164.405 173.256 171.595 173.256 172.956 178.325L175.846 189.046C177.112 193.762 180.795 197.445 185.503 198.71L196.224 201.593C201.293 202.962 201.293 210.152 196.224 211.521L185.503 214.404C180.795 215.669 177.112 219.352 175.846 224.06L172.956 234.782C171.595 239.85 164.405 239.85 163.035 234.782L160.153 224.06C158.888 219.352 155.205 215.669 150.488 214.404L139.767 211.521C134.699 210.152 134.699 202.962 139.767 201.593L150.488 198.71Z" fill="#ffffff" fill-rule="evenodd" opacity="1" stroke="#000000" stroke-linecap="butt" stroke-linejoin="miter" stroke-opacity="0.12941" stroke-width="10"/>
<path d="M150.488 198.71C155.205 197.445 158.888 193.762 160.153 189.046L163.035 178.325C164.405 173.256 171.595 173.256 172.956 178.325L175.846 189.046C177.112 193.762 180.795 197.445 185.503 198.71L196.224 201.593C201.293 202.962 201.293 210.152 196.224 211.521L185.503 214.404C180.795 215.669 177.112 219.352 175.846 224.06L172.956 234.782C171.595 239.85 164.405 239.85 163.035 234.782L160.153 224.06C158.888 219.352 155.205 215.669 150.488 214.404L139.767 211.521C134.699 210.152 134.699 202.962 139.767 201.593L150.488 198.71Z" fill="#ffffff" fill-rule="evenodd" opacity="1" stroke="none"/>
</g>
<g opacity="1">
<path d="M362.371 88.1289C346.539 72.2966 324.664 62.5016 300.5 62.5016L300.5 150L362.371 88.1289Z" fill="#eb6060" fill-rule="nonzero" opacity="1" stroke="none"/>
<path d="M386.998 150C386.998 127.605 378.458 105.215 361.371 88.1289L299.5 150L386.998 150Z" fill="#f08a48" fill-rule="nonzero" opacity="1" stroke="none"/>
<path d="M360.883 211.871C376.716 196.039 386.511 174.164 386.511 150L299.012 150L360.883 211.871Z" fill="#ffdf59" fill-rule="nonzero" opacity="1" stroke="none"/>
<path d="M300.5 237.498C322.895 237.498 345.285 228.958 362.371 211.871L300.5 150L300.5 237.498Z" fill="#76d67d" fill-rule="nonzero" opacity="1" stroke="none"/>
<path d="M238.629 211.871C254.461 227.703 276.336 237.498 300.5 237.498L300.5 150L238.629 211.871Z" fill="#669fed" fill-rule="nonzero" opacity="1" stroke="none"/>
<path d="M213.002 150C213.002 172.395 221.542 194.785 238.629 211.871L300.5 150L213.002 150Z" fill="#6f85e8" fill-rule="nonzero" opacity="1" stroke="none"/>
<path d="M238.629 88.1289C222.797 103.961 213.002 125.836 213.002 150L300.5 150L238.629 88.1289Z" fill="#b05de3" fill-rule="nonzero" opacity="1" stroke="none"/>
<path d="M300.5 62.5016C278.105 62.5016 255.715 71.0424 238.629 88.1289L300.5 150L300.5 62.5016Z" fill="#dc5de3" fill-rule="nonzero" opacity="1" stroke="none"/>
<g opacity="1">
<mask height="174.997" id="StrokeMask" maskUnits="userSpaceOnUse" width="173.997" x="213.002" y="62.5016">
<rect fill="#000000" height="174.997" stroke="none" width="173.997" x="213.002" y="62.5016"/>
<use fill="#ffffff" fill-rule="evenodd" stroke="none" xlink:href="#Fill"/>
</mask>
<use fill="none" mask="url(#StrokeMask)" stroke="#000000" stroke-linecap="butt" stroke-linejoin="miter" stroke-opacity="0.3" stroke-width="8" xlink:href="#Fill"/>
</g>
</g>
<g opacity="1">
<path d="M406.789 86.9442L428.874 64.8593C431.425 62.3081 434.819 60.9023 438.427 60.9023C442.036 60.9023 445.432 62.3081 447.981 64.8593C450.535 67.4105 451.941 70.807 451.941 74.4156C451.941 78.0242 450.535 81.4177 447.981 83.9689L425.899 106.054L406.789 86.9442Z" fill="#f5c276" fill-rule="nonzero" opacity="1" stroke="none"/>
<path d="M438.427 62.4172C441.633 62.4172 444.645 63.6655 446.911 65.9319C451.589 70.6101 451.589 78.2211 446.911 82.8993L425.899 103.912L408.931 86.9442L429.944 65.9319C432.21 63.6655 435.225 62.4172 438.427 62.4172M438.427 59.3873C434.582 59.3873 430.734 60.8538 427.801 63.7898L404.647 86.9442L425.899 108.196L449.053 85.0414C454.922 79.1725 454.922 69.6587 449.053 63.7898C446.12 60.8538 442.275 59.3873 438.427 59.3873L438.427 59.3873Z" fill="#bf9753" fill-rule="nonzero" opacity="1" stroke="none"/>
<path d="M340.462 165.767L345.891 160.34L344.292 155.535C343.473 153.099 344.101 150.457 345.916 148.639L400.511 94.0433L418.8 112.329L364.204 166.927C362.928 168.2 361.238 168.9 359.435 168.9L359.435 168.9C358.714 168.9 357.996 168.785 357.308 168.554L352.506 166.952L347.076 172.381L340.462 165.767Z" fill="#c2e8ff" fill-rule="nonzero" opacity="1" stroke="none"/>
<path d="M400.511 96.1884L416.655 112.332L363.131 165.855C362.144 166.843 360.832 167.385 359.435 167.385C358.874 167.385 358.317 167.294 357.784 167.115L353.869 165.809L352.094 165.222L350.769 166.546L347.076 170.239L342.604 165.767L346.297 162.073L347.621 160.749L347.031 158.974L345.725 155.059C345.094 153.169 345.579 151.12 346.988 149.712L400.511 96.1884M400.511 91.9042L344.846 147.569C342.634 149.781 341.865 153.05 342.852 156.017L344.158 159.931L338.32 165.767L347.076 174.523L352.912 168.688L356.826 169.994C357.681 170.278 358.562 170.418 359.435 170.418C361.589 170.418 363.698 169.572 365.274 168L420.939 112.335L400.511 91.9042L400.511 91.9042Z" fill="#7799c6" fill-rule="nonzero" opacity="1" stroke="none"/>
<g opacity="1">
<path d="M424.735 118.47C424.054 118.47 423.414 118.207 422.932 117.725L395.115 89.9105C394.124 88.9167 394.124 87.3017 395.115 86.3079L401.596 79.827C402.078 79.3452 402.717 79.0816 403.399 79.0816C404.077 79.0816 404.717 79.3452 405.198 79.827L433.016 107.641C434.007 108.635 434.007 110.25 433.016 111.244L426.535 117.725C426.053 118.207 425.414 118.47 424.735 118.47Z" fill="#f5c276" fill-rule="nonzero" opacity="1" stroke="none"/>
<path d="M403.399 80.5966C403.559 80.5966 403.865 80.636 404.129 80.8996L431.943 108.714C432.346 109.117 432.346 109.771 431.943 110.171L425.462 116.652C425.199 116.916 424.893 116.955 424.732 116.955C424.572 116.955 424.266 116.916 424.002 116.652L396.188 88.8379C395.785 88.4349 395.785 87.7805 396.188 87.3805L402.672 80.8996C402.932 80.636 403.241 80.5966 403.399 80.5966M403.399 77.5667C402.359 77.5667 401.32 77.9636 400.526 78.7574L394.045 85.2384C392.461 86.823 392.461 89.3954 394.045 90.9831L421.86 118.797C422.657 119.588 423.696 119.985 424.735 119.985C425.774 119.985 426.814 119.588 427.608 118.794L434.089 112.314C435.673 110.729 435.673 108.157 434.089 106.569L406.274 78.7544C405.477 77.9636 404.438 77.5667 403.399 77.5667L403.399 77.5667Z" fill="#bf9753" fill-rule="nonzero" opacity="1" stroke="none"/>
</g>
</g>
</g>
</svg>
