<?xml version="1.0" encoding="UTF-8" standalone="no"?>
<!DOCTYPE svg PUBLIC "-//W3C//DTD SVG 1.1//EN" "http://www.w3.org/Graphics/SVG/1.1/DTD/svg11.dtd">
<!-- Created with Vectornator (http://vectornator.io/) -->
<svg height="40.0pt" stroke-miterlimit="10" style="fill-rule:nonzero;clip-rule:evenodd;stroke-linecap:round;stroke-linejoin:round;" version="1.1" viewBox="0 0 40 40" width="40.0pt" xml:space="preserve" xmlns="http://www.w3.org/2000/svg" xmlns:xlink="http://www.w3.org/1999/xlink">
<defs/>
<g id="无标题">
<path d="M10.4 4L29.6 4C33.8667 4 36 6.13333 36 10.4L36 29.6C36 33.8667 33.8667 36 29.6 36L10.4 36C6.13333 36 4 33.8667 4 29.6L4 10.4C4 6.13333 6.13333 4 10.4 4Z" fill="#95efc2" fill-rule="nonzero" opacity="1" stroke="none"/>
<path d="M29.6 4L20.696 4C12.9348 5.8927 6.65443 11.5772 4 19.112L4 29.6C4 33.1346 6.86538 36 10.4 36L29.6 36C33.1346 36 36 33.1346 36 29.6L36 10.4C36 6.86538 33.1346 4 29.6 4Z" fill="#88edbf" fill-rule="nonzero" opacity="1" stroke="none"/>
<path d="M29.6 4L29.48 4C22.6588 5.47502 16.8401 9.89349 13.5876 16.0681C10.3351 22.2428 9.98233 29.5404 12.624 36L29.6 36C33.1346 36 36 33.1346 36 29.6L36 10.4C36 6.86538 33.1346 4 29.6 4Z" fill="#79e8b8" fill-rule="nonzero" opacity="1" stroke="none"/>
<path d="M19.536 26.536C19.532 29.7935 20.2048 33.0163 21.512 36L29.6 36C33.1346 36 36 33.1346 36 29.6L36 10.4C35.9998 8.28851 34.9582 6.31299 33.216 5.12C24.8737 8.98457 19.5352 17.3421 19.536 26.536Z" fill="#69e2b3" fill-rule="nonzero" opacity="1" stroke="none"/>
<path d="M9.6 20C9.6 25.7438 14.2562 30.4 20 30.4C25.7438 30.4 30.4 25.7438 30.4 20C30.4 14.2562 25.7438 9.6 20 9.6C14.2562 9.6 9.6 14.2562 9.6 20Z" fill="#d7ffe9" fill-rule="nonzero" opacity="1" stroke="none"/>
<path d="M28 18.4C27.9949 15.4331 26.7229 12.6096 24.504 10.64C19.8427 8.44656 14.278 9.99617 11.4213 14.2832C8.56466 18.5702 9.27697 24.3025 13.096 27.76C16.3164 29.3073 20.1055 29.0932 23.1311 27.1931C26.1567 25.293 27.9952 21.9728 28 18.4Z" fill="#ffffff" fill-rule="nonzero" opacity="1" stroke="none"/>
<path d="M20.032 14.28L20.032 20L22.776 23.224" fill="#ffffff" fill-rule="nonzero" opacity="1" stroke="none"/>
<path d="M22.776 24C22.5422 24 22.32 23.8977 22.168 23.72L19.424 20.52C19.2884 20.3798 19.2088 20.1948 19.2 20L19.2 14.28C19.2 13.8382 19.5582 13.48 20 13.48C20.4418 13.48 20.8 13.8382 20.8 14.28L20.8 19.704L23.36 22.704C23.5459 22.9384 23.5855 23.257 23.4626 23.5298C23.3397 23.8026 23.0748 23.984 22.776 24Z" fill="#79e8b8" fill-rule="nonzero" opacity="1" stroke="none"/>
</g>
</svg>
