<svg xmlns="http://www.w3.org/2000/svg" width="284.242" height="284.242"><g fill-rule="evenodd" stroke-miterlimit="10" data-paper-data="{&quot;isPaintingLayer&quot;:true}" style="mix-blend-mode:normal"><path fill="none" d="M188.894 119.459c-.706 2.378-1.43 4.69-2.172 6.933-1.05 3.15-2.21 6.445-3.48 9.888a1671.47 1671.47 0 0 0-4.174 11.462l-5.73 15.528h30.833l-5.73-15.528a522.83 522.83 0 0 1-4.065-11.242 408.343 408.343 0 0 1-3.37-10.108 350.767 350.767 0 0 1-2.112-6.933zm18.519-56.092 62.329 157.508H225.43l-9.636-26.111h-54.08l-9.636 26.11h-43.432l62.768-157.507Z"/><path fill="#96f" stroke="#7240d6" stroke-linejoin="round" stroke-width="29" d="M188.894 119.459c-.706 2.378-1.43 4.69-2.172 6.933-1.05 3.15-2.21 6.445-3.48 9.888a1671.47 1671.47 0 0 0-4.174 11.462l-5.73 15.528h30.833l-5.73-15.528a522.83 522.83 0 0 1-4.065-11.242 408.343 408.343 0 0 1-3.37-10.108 350.767 350.767 0 0 1-2.112-6.933zm18.519-56.092 62.329 157.508H225.43l-9.636-26.111h-54.08l-9.636 26.11h-43.432l62.768-157.507Z"/><path fill="none" d="M188.894 119.459c-.706 2.378-1.43 4.69-2.172 6.933-1.05 3.15-2.21 6.445-3.48 9.888a1671.47 1671.47 0 0 0-4.174 11.462l-5.73 15.528h30.833l-5.73-15.528a522.827 522.827 0 0 1-4.065-11.242 408.302 408.302 0 0 1-3.37-10.108 350.767 350.767 0 0 1-2.112-6.933zm18.519-56.092 62.329 157.508H225.43l-9.636-26.111h-54.08l-9.636 26.11h-43.432l62.768-157.507Z"/><path fill="#ffa24d" stroke="#fff" stroke-linejoin="round" stroke-width="9" d="M188.894 119.459c-.706 2.378-1.43 4.69-2.172 6.933-1.05 3.15-2.21 6.445-3.48 9.888a1671.47 1671.47 0 0 0-4.174 11.462l-5.73 15.528h30.833l-5.73-15.528a522.827 522.827 0 0 1-4.065-11.242 408.302 408.302 0 0 1-3.37-10.108 350.767 350.767 0 0 1-2.112-6.933zm18.519-56.092 62.329 157.508H225.43l-9.636-26.111h-54.08l-9.636 26.11h-43.432l62.768-157.507Z"/><path fill="none" d="M143.696 119.459c-.706 2.378-1.43 4.69-2.172 6.933-1.05 3.15-2.21 6.445-3.479 9.888a1671.47 1671.47 0 0 0-4.175 11.462l-5.73 15.528h30.833l-5.73-15.528a522.827 522.827 0 0 1-4.065-11.242 408.343 408.343 0 0 1-3.37-10.108 350.767 350.767 0 0 1-2.112-6.933zm18.519-56.092 62.33 157.508h-44.312l-9.637-26.111h-54.08l-9.636 26.11H63.448l62.768-157.507Z"/><path fill="#96f" stroke="#7240d6" stroke-linejoin="round" stroke-width="29" d="M143.696 119.459c-.706 2.378-1.43 4.69-2.172 6.933-1.05 3.15-2.21 6.445-3.479 9.888a1671.47 1671.47 0 0 0-4.175 11.462l-5.73 15.528h30.833l-5.73-15.528a522.827 522.827 0 0 1-4.065-11.242 408.343 408.343 0 0 1-3.37-10.108 350.767 350.767 0 0 1-2.112-6.933zm18.519-56.092 62.33 157.508h-44.312l-9.637-26.111h-54.08l-9.636 26.11H63.448l62.768-157.507Z"/><path fill="none" d="M143.696 119.459c-.706 2.378-1.43 4.69-2.172 6.933-1.05 3.15-2.21 6.445-3.479 9.888a1671.47 1671.47 0 0 0-4.175 11.462l-5.73 15.528h30.833l-5.73-15.528a522.827 522.827 0 0 1-4.065-11.242 408.343 408.343 0 0 1-3.37-10.108 350.767 350.767 0 0 1-2.112-6.933zm18.519-56.092 62.33 157.508h-44.312l-9.637-26.111h-54.08l-9.636 26.11H63.448l62.768-157.507Z"/><path fill="#ff774d" stroke="#fff" stroke-linejoin="round" stroke-width="9" d="M143.696 119.459c-.706 2.378-1.43 4.69-2.172 6.933-1.05 3.15-2.21 6.445-3.479 9.888a1671.47 1671.47 0 0 0-4.175 11.462l-5.73 15.528h30.833l-5.73-15.528a522.827 522.827 0 0 1-4.065-11.242 408.343 408.343 0 0 1-3.37-10.108 350.767 350.767 0 0 1-2.112-6.933zm18.519-56.092 62.33 157.508h-44.312l-9.637-26.111h-54.08l-9.636 26.11H63.448l62.768-157.507Z"/><path fill="none" d="M94.748 119.459c-.706 2.378-1.43 4.69-2.172 6.933-1.05 3.15-2.21 6.445-3.479 9.888-1.27 3.442-2.66 7.263-4.175 11.462l-5.73 15.528h30.833l-5.73-15.528a522.885 522.885 0 0 1-4.065-11.242 408.343 408.343 0 0 1-3.37-10.108 350.767 350.767 0 0 1-2.112-6.933zm18.52-56.092 62.328 157.508h-44.311l-9.637-26.111h-54.08l-9.635 26.11H14.5L77.269 63.368Z"/><path fill="#96f" stroke="#7240d6" stroke-linejoin="round" stroke-width="29" d="M94.748 119.459c-.706 2.378-1.43 4.69-2.172 6.933-1.05 3.15-2.21 6.445-3.479 9.888-1.27 3.442-2.66 7.263-4.175 11.462l-5.73 15.528h30.833l-5.73-15.528a522.885 522.885 0 0 1-4.065-11.242 408.343 408.343 0 0 1-3.37-10.108 350.767 350.767 0 0 1-2.112-6.933zm18.52-56.092 62.328 157.508h-44.311l-9.637-26.111h-54.08l-9.635 26.11H14.5L77.269 63.368Z"/><path fill="none" d="M94.748 119.459c-.706 2.378-1.43 4.69-2.172 6.933-1.05 3.15-2.21 6.445-3.479 9.888-1.27 3.442-2.66 7.263-4.175 11.462l-5.73 15.528h30.833l-5.73-15.528a522.885 522.885 0 0 1-4.065-11.242 408.302 408.302 0 0 1-3.37-10.108 350.767 350.767 0 0 1-2.112-6.933zm18.52-56.092 62.328 157.508h-44.311l-9.637-26.111h-54.08l-9.635 26.11H14.5L77.269 63.368Z"/><path fill="#ff4c4c" stroke="#fff" stroke-linejoin="round" stroke-width="9" d="M94.748 119.459c-.706 2.378-1.43 4.69-2.172 6.933-1.05 3.15-2.21 6.445-3.479 9.888-1.27 3.442-2.66 7.263-4.175 11.462l-5.73 15.528h30.833l-5.73-15.528a522.885 522.885 0 0 1-4.065-11.242 408.302 408.302 0 0 1-3.37-10.108 350.767 350.767 0 0 1-2.112-6.933zm18.52-56.092 62.328 157.508h-44.311l-9.637-26.111h-54.08l-9.635 26.11H14.5L77.269 63.368Z"/></g></svg>