<?xml version="1.0" encoding="UTF-8"?>
<!-- Generated by Pixelmator Pro 3.6.11 -->
<svg width="80" height="80" viewBox="0 0 80 80" xmlns="http://www.w3.org/2000/svg">
    <g id="g6666-">
        <linearGradient id="linearGradient1" x1="49.64828" y1="28.809281" x2="67.379173" y2="9.548903" gradientUnits="userSpaceOnUse">
            <stop offset="1e-05" stop-color="#ffffff" stop-opacity="1"/>
            <stop offset="1" stop-color="#ffffff" stop-opacity="0"/>
        </linearGradient>
        <clipPath id="clipPath1">
            <path d="M 18.372226 12.217844 L 62.083097 12.217844 C 66.019868 12.217844 69.211271 15.58953 69.211271 19.748763 L 69.211271 61.655637 C 69.211271 65.814868 66.019868 69.186557 62.083097 69.186557 L 18.372226 69.186557 C 14.435455 69.186557 11.244051 65.814868 11.244051 61.655637 L 11.244051 19.748763 C 11.244051 15.58953 14.435455 12.217844 18.372226 12.217844 Z"/>
        </clipPath>
        <filter id="filter1" x="0" y="0" width="80" height="80" filterUnits="userSpaceOnUse" primitiveUnits="userSpaceOnUse" color-interpolation-filters="sRGB">
            <feGaussianBlur stdDeviation="0.428845"/>
        </filter>
        <path id="rect5036" fill="url(#linearGradient1)" stroke="none" clip-path="url(#clipPath1)" filter="url(#filter1)" d="M 10.715894 12.307655 L 64.738129 12.307655 L 64.738129 69.492577 L 10.715894 69.492577 Z"/>
        <linearGradient id="linearGradient2" x1="25.933115" y1="50.573666" x2="77.92424" y2="6.426924" gradientUnits="userSpaceOnUse">
            <stop offset="1e-05" stop-color="#8d89c2" stop-opacity="1"/>
            <stop offset="1" stop-color="#fffff9" stop-opacity="0.982759"/>
        </linearGradient>
        <clipPath id="clipPath2">
            <path d="M 18.691599 12.217833 L 61.76371 12.217833 C 65.876883 12.217833 69.211259 15.589567 69.211259 19.748786 L 69.211259 61.65563 C 69.211259 65.814849 65.876883 69.186583 61.76371 69.186583 L 18.691599 69.186583 C 14.578424 69.186583 11.244047 65.814849 11.244047 61.65563 L 11.244047 19.748786 C 11.244047 15.589567 14.578424 12.217833 18.691599 12.217833 Z"/>
        </clipPath>
        <filter id="filter2" x="0" y="0" width="80" height="80" filterUnits="userSpaceOnUse" primitiveUnits="userSpaceOnUse" color-interpolation-filters="sRGB">
            <feGaussianBlur stdDeviation="0.428687"/>
        </filter>
        <path id="rect6113" fill="url(#linearGradient2)" stroke="none" clip-path="url(#clipPath2)" filter="url(#filter2)" d="M 6.973675 12.499405 L 68.396721 12.499405 L 68.396721 74.730171 L 6.973675 74.730171 Z"/>
        <linearGradient id="linearGradient3" x1="69.567658" y1="10.868287" x2="39.10682" y2="41.144141" gradientUnits="userSpaceOnUse">
            <stop offset="1e-05" stop-color="#8d89c2" stop-opacity="1"/>
            <stop offset="1" stop-color="#fffff9" stop-opacity="0.982759"/>
        </linearGradient>
        <clipPath id="clipPath3">
            <path d="M 18.747748 12.21782 L 61.707627 12.21782 C 65.851783 12.21782 69.211311 15.589532 69.211311 19.748744 L 69.211311 61.65562 C 69.211311 65.814834 65.851783 69.186545 61.707627 69.186545 L 18.747748 69.186545 C 14.603594 69.186545 11.244066 65.814834 11.244066 61.65562 L 11.244066 19.748744 C 11.244066 15.589532 14.603594 12.21782 18.747748 12.21782 Z"/>
        </clipPath>
        <filter id="filter3" x="0" y="0" width="80" height="80" filterUnits="userSpaceOnUse" primitiveUnits="userSpaceOnUse" color-interpolation-filters="sRGB">
            <feGaussianBlur stdDeviation="0.428681"/>
        </filter>
        <path id="path5872" fill="url(#linearGradient3)" stroke="#807ead" stroke-width="2.128458" stroke-linejoin="round" clip-path="url(#clipPath3)" filter="url(#filter3)" d="M 9.734156 -3.532745 C 51.000248 -3.532745 84.48378 29.982868 84.594048 71.398712 L 9.734156 71.599411 Z"/>
        <linearGradient id="linearGradient4" x1="57.604236" y1="23.737031" x2="26.967412" y2="53.536608" gradientUnits="userSpaceOnUse">
            <stop offset="1e-05" stop-color="#8d89c2" stop-opacity="1"/>
            <stop offset="1" stop-color="#fffff9" stop-opacity="0.982759"/>
        </linearGradient>
        <clipPath id="clipPath4">
            <path d="M 18.389246 12.217814 L 62.066 12.217814 C 66.012255 12.217814 69.211215 15.589527 69.211215 19.748723 L 69.211215 61.655625 C 69.211215 65.814842 66.012255 69.186535 62.066 69.186535 L 18.389246 69.186535 C 14.443073 69.186535 11.244033 65.814842 11.244033 61.655625 L 11.244033 19.748723 C 11.244033 15.589527 14.443073 12.217814 18.389246 12.217814 Z"/>
        </clipPath>
        <filter id="filter4" x="0" y="0" width="80" height="80" filterUnits="userSpaceOnUse" primitiveUnits="userSpaceOnUse" color-interpolation-filters="sRGB">
            <feGaussianBlur stdDeviation="0.428831"/>
        </filter>
        <path id="path5876" fill="url(#linearGradient4)" stroke="#807ead" stroke-width="2.129204" stroke-linejoin="round" clip-path="url(#clipPath4)" filter="url(#filter4)" d="M 10.102884 9.680115 C 43.569958 9.680115 70.725327 38.224941 70.814751 73.498291 L 10.102884 73.66922 Z"/>
        <linearGradient id="linearGradient5" x1="44.73685" y1="34.448092" x2="19.500811" y2="57.619667" gradientUnits="userSpaceOnUse">
            <stop offset="1e-05" stop-color="#8d89c2" stop-opacity="1"/>
            <stop offset="1" stop-color="#fffff9" stop-opacity="0.982759"/>
        </linearGradient>
        <clipPath id="clipPath5">
            <path d="M 18.508252 12.217815 L 61.947068 12.217815 C 65.958975 12.217815 69.211271 15.589527 69.211271 19.748731 L 69.211271 61.655626 C 69.211271 65.814849 65.958975 69.186543 61.947068 69.186543 L 18.508252 69.186543 C 14.496347 69.186543 11.244049 65.814849 11.244049 61.655626 L 11.244049 19.748731 C 11.244049 15.589527 14.496347 12.217815 18.508252 12.217815 Z"/>
        </clipPath>
        <filter id="filter5" x="0" y="0" width="80" height="80" filterUnits="userSpaceOnUse" primitiveUnits="userSpaceOnUse" color-interpolation-filters="sRGB">
            <feGaussianBlur stdDeviation="0.428752"/>
        </filter>
        <path id="path5026" fill="url(#linearGradient5)" stroke="#807ead" stroke-width="2.128809" stroke-linejoin="round" clip-path="url(#clipPath5)" filter="url(#filter5)" d="M 9.630861 24.294209 C 34.171803 24.294209 54.084454 44.882942 54.150024 70.324806 L 9.630861 70.44809 Z"/>
        <linearGradient id="linearGradient6" x1="31.109546" y1="48.714003" x2="10.704685" y2="69.495544" gradientUnits="userSpaceOnUse">
            <stop offset="1e-05" stop-color="#6f1171" stop-opacity="1"/>
            <stop offset="1" stop-color="#bea1c7" stop-opacity="1"/>
        </linearGradient>
        <clipPath id="clipPath6">
            <path d="M 18.635492 12.217819 L 61.819842 12.217819 C 65.902019 12.217819 69.21123 15.589521 69.21123 19.748739 L 69.21123 61.655624 C 69.21123 65.81484 65.902019 69.186544 61.819842 69.186544 L 18.635492 69.186544 C 14.553313 69.186544 11.244058 65.81484 11.244058 61.655624 L 11.244058 19.748739 C 11.244058 15.589521 14.553313 12.217819 18.635492 12.217819 Z"/>
        </clipPath>
        <filter id="filter6" x="0" y="0" width="80" height="80" filterUnits="userSpaceOnUse" primitiveUnits="userSpaceOnUse" color-interpolation-filters="sRGB">
            <feGaussianBlur stdDeviation="0.4287"/>
        </filter>
        <path id="path5849" fill="url(#linearGradient6)" stroke="none" clip-path="url(#clipPath6)" filter="url(#filter6)" d="M 9.037301 37.328037 C 27.385347 37.328037 42.273052 52.456253 42.322075 71.150459 L 9.037301 71.241051 Z"/>
        <path id="rect6215-8" fill="none" stroke="#6f1171" stroke-width="1.451218" stroke-linecap="round" stroke-linejoin="round" d="M 18.255014 11.819923 L 61.152168 11.819923 C 65.313652 11.819923 68.687195 15.19165 68.687195 19.350834 L 68.687195 61.257717 C 68.687195 65.416962 65.313652 68.788681 61.152168 68.788681 L 18.255014 68.788681 C 14.09353 68.788681 10.719989 65.416962 10.719989 61.257717 L 10.719989 19.350834 C 10.719989 15.19165 14.09353 11.819923 18.255014 11.819923 Z"/>
    </g>
</svg>
