<?xml version="1.0" encoding="UTF-8" standalone="no"?>
<!DOCTYPE svg PUBLIC "-//W3C//DTD SVG 1.1//EN" "http://www.w3.org/Graphics/SVG/1.1/DTD/svg11.dtd">
<!-- Created with Vectornator (http://vectornator.io/) -->
<svg height="40.0pt" stroke-miterlimit="10" style="fill-rule:nonzero;clip-rule:evenodd;stroke-linecap:round;stroke-linejoin:round;" version="1.1" viewBox="0 0 40 40" width="40.0pt" xml:space="preserve" xmlns="http://www.w3.org/2000/svg" xmlns:xlink="http://www.w3.org/1999/xlink">
<defs>
<path d="M19.9102 10.2344C17.6875 10.2344 15.875 12.043 15.875 14.2695C15.875 15.1094 16.1289 15.9102 16.6055 16.5898C17.043 17.2148 17.6406 17.6953 18.3398 17.9883L18.3398 35.2969L21.4805 35.2969L21.4805 17.9844C22.1797 17.6914 22.7773 17.2109 23.2148 16.5859C23.6914 15.9062 23.9453 15.1055 23.9453 14.2656C23.9453 12.043 22.1328 10.2344 19.9102 10.2344Z" id="Fill"/>
</defs>
<g id="无标题">
<g opacity="1">
<use fill="#1f9900" fill-rule="nonzero" stroke="none" xlink:href="#Fill"/>
<mask height="29.0625" id="StrokeMask" maskUnits="userSpaceOnUse" width="12.0703" x="13.875" y="8.2344">
<rect fill="#ffffff" height="29.0625" stroke="none" width="12.0703" x="13.875" y="8.2344"/>
<use fill="#000000" fill-rule="evenodd" stroke="none" xlink:href="#Fill"/>
</mask>
<use fill="none" mask="url(#StrokeMask)" stroke="#146600" stroke-linecap="butt" stroke-linejoin="round" stroke-width="4" xlink:href="#Fill"/>
</g>
<path d="M34.5078 5.19141C34.0938 4.57812 33.2578 4.41406 32.6406 4.83203C32.0273 5.24609 31.8633 6.08203 32.2812 6.69922C33.9492 9.16406 34.8281 12.0508 34.8281 15.0391C34.8281 17.9922 33.9688 20.8477 32.3398 23.293C31.9297 23.9102 32.0977 24.7461 32.7148 25.1562C32.9336 25.3047 33.1953 25.3828 33.457 25.3828C33.8906 25.3828 34.3164 25.1719 34.5781 24.7852C36.5 21.8945 37.5195 18.5273 37.5195 15.043C37.5156 11.5078 36.4727 8.10156 34.5078 5.19141M4.99219 15.0352C4.99219 12.1484 5.82031 9.34375 7.38281 6.93359C7.78516 6.3125 7.60938 5.48047 6.98438 5.07422C6.36328 4.67187 5.53125 4.84766 5.125 5.47266C3.28125 8.31641 2.30469 11.625 2.30469 15.0352C2.30469 18.5625 3.34375 21.9648 5.3125 24.8789C5.57422 25.2617 5.99609 25.4688 6.42578 25.4688C6.69531 25.4688 6.95703 25.3867 7.17578 25.2383C7.78906 24.8242 7.95312 23.9883 7.53516 23.3711C5.87109 20.9062 4.99219 18.0234 4.99219 15.0352" fill="#146600" fill-rule="nonzero" opacity="1" stroke="#146600" stroke-linecap="butt" stroke-linejoin="round" stroke-width="2"/>
<path d="M10.7695 15.0352C10.7695 13.2656 11.2773 11.5508 12.2344 10.0703C12.6367 9.44922 12.4609 8.61719 11.8359 8.21094C11.2148 7.80859 10.3828 7.98437 9.97656 8.60937C8.73438 10.5234 8.08203 12.7461 8.08203 15.0352C8.08203 17.4062 8.78125 19.6914 10.1016 21.6484C10.3594 22.0312 10.7852 22.2383 11.2148 22.2383C11.4844 22.2383 11.7461 22.1562 11.9648 22.0078C12.5781 21.5938 12.7422 20.7578 12.3242 20.1406C11.3086 18.6328 10.7695 16.8633 10.7695 15.0352M27.8477 8.05859C27.2344 8.47266 27.0703 9.30859 27.4883 9.92578C28.5078 11.4375 29.0469 13.2031 29.0469 15.0352C29.0469 16.8438 28.5195 18.5938 27.5234 20.0898C27.1133 20.707 27.2812 21.543 27.8984 21.9531C28.1172 22.1016 28.3789 22.1797 28.6406 22.1797C29.0742 22.1797 29.5 21.9688 29.7617 21.582C31.0547 19.6406 31.7383 17.3789 31.7383 15.0352C31.7383 12.6641 31.0391 10.3789 29.7188 8.42188C29.3008 7.80469 28.4648 7.64453 27.8477 8.05859" fill="#198000" fill-rule="nonzero" opacity="1" stroke="#198000" stroke-linecap="butt" stroke-linejoin="round" stroke-width="2"/>
</g>
</svg>
