<?xml version="1.0" encoding="UTF-8" standalone="no"?>
<!DOCTYPE svg PUBLIC "-//W3C//DTD SVG 1.1//EN" "http://www.w3.org/Graphics/SVG/1.1/DTD/svg11.dtd">
<!-- Created with Vectornator (http://vectornator.io/) -->
<svg stroke-miterlimit="10" style="fill-rule:nonzero;clip-rule:evenodd;stroke-linecap:round;stroke-linejoin:round;"
  version="1.1" viewBox="0 0 20 20" xml:space="preserve" xmlns="http://www.w3.org/2000/svg"
  xmlns:xlink="http://www.w3.org/1999/xlink">
  <defs />
  <g>
    <path
      d="M3.9452 4.81391C4.17755 3.25078 5.42555 2 7.00816 2C7.95633 2 8.7939 2.45635 9.35529 3.15478C9.44299 3.26391 9.48363 3.40346 9.46822 3.54261C9.45282 3.68176 9.38264 3.80905 9.2732 3.89635C9.04541 4.07852 8.71319 4.04212 8.53024 3.81496C8.14764 3.33913 7.60224 3.05461 7.00816 3.05461C6.0739 3.05461 5.23216 3.78017 5.01651 4.81739C5.21219 4.84158 5.37797 4.97305 5.44609 5.15808C5.51422 5.34311 5.47327 5.5507 5.33998 5.696L4.8252 6.25948C4.72504 6.36907 4.58341 6.4315 4.43494 6.4315C4.28647 6.4315 4.14484 6.36907 4.04468 6.25948L3.5299 5.696C3.38521 5.53845 3.3502 5.30902 3.44132 5.11549C3.53244 4.92195 3.73158 4.80277 3.9452 4.81391ZM9.74972 4.25043C9.89816 4.25038 10.0398 4.31274 10.14 4.42226L10.6548 4.98504C10.8 5.14255 10.8353 5.37231 10.7441 5.56614C10.6529 5.75998 10.4534 5.87926 10.2395 5.86783C10.0078 7.43026 8.75981 8.68104 7.17651 8.68104C6.29442 8.68104 5.50694 8.28591 4.95042 7.66817C4.85677 7.56435 4.80824 7.42755 4.81555 7.28792C4.82286 7.14829 4.8854 7.0173 4.98937 6.92383C5.20652 6.72848 5.54085 6.74591 5.73651 6.96278C6.11216 7.38017 6.62277 7.62643 7.17651 7.62643C8.11077 7.62643 8.95251 6.90157 9.16816 5.86365C8.97247 5.83947 8.80669 5.70799 8.73857 5.52296C8.67045 5.33793 8.71139 5.13035 8.84468 4.98504L9.35946 4.42226C9.45966 4.31274 9.60128 4.25038 9.74972 4.25043Z"
      fill="#575e75" fill-rule="evenodd" opacity="1" stroke="none" />
    <path
      d="M16.6089 9.56035L16.6089 12.3736C16.6089 15.0261 16.6089 16.3527 15.7831 17.1763C14.9574 18 13.628 18 10.9692 18C8.31111 18 6.98172 18 6.15529 17.1763C5.33024 16.352 5.33024 15.0261 5.33024 12.3736L5.33024 11.1687C5.33024 10.9816 5.33024 10.8883 5.34764 10.8111C5.40802 10.5474 5.61446 10.3418 5.87842 10.2824C5.95494 10.2643 6.04955 10.2643 6.23668 10.2643C7.35946 10.2643 7.92016 10.2643 8.38416 10.1593C9.96835 9.80038 11.2065 8.56497 11.5689 6.98157C11.6746 6.51896 11.6746 5.95965 11.6746 4.84104C11.6746 4.656 11.6746 4.56278 11.6927 4.48487C11.756 4.21821 11.9672 4.01186 12.2353 3.95478C12.3132 3.93809 12.4036 3.94017 12.5831 3.94365C14.2054 3.97635 15.1445 4.12104 15.7831 4.75757C16.6089 5.58261 16.6089 6.90852 16.6089 9.56104L16.6089 9.56035ZM8.85442 15.3621C8.65799 15.3497 8.47095 15.4475 8.36899 15.6159C8.26703 15.7842 8.26703 15.9953 8.36899 16.1636C8.47095 16.332 8.65799 16.4298 8.85442 16.4174L13.084 16.4174C13.2788 16.4274 13.4633 16.3291 13.5638 16.1619C13.6642 15.9946 13.6642 15.7856 13.5638 15.6183C13.4633 15.451 13.2788 15.3528 13.084 15.3628L8.85442 15.3628L8.85442 15.3621Z"
      fill="#575e75" fill-rule="evenodd" opacity="1" stroke="none" />
  </g>
</svg>